<?xml version="1.0" standalone="no"?>
<!DOCTYPE svg PUBLIC "-//W3C//DTD SVG 20010904//EN"
 "http://www.w3.org/TR/2001/REC-SVG-20010904/DTD/svg10.dtd">
<svg version="1.0" xmlns="http://www.w3.org/2000/svg"
 width="512.000000pt" height="512.000000pt" viewBox="0 0 512.000000 512.000000"
 preserveAspectRatio="xMidYMid meet">

<g transform="translate(0.000000,512.000000) scale(0.100000,-0.100000)"
fill="#000000" stroke="none">
<path d="M1965 5100 c-113 -37 -207 -132 -240 -243 -11 -36 -15 -97 -15 -214
l0 -163 -589 -2 c-580 -3 -590 -3 -618 -24 -98 -73 -98 -195 0 -268 l28 -21
2029 0 2029 0 28 21 c98 73 98 195 0 268 -28 21 -38 21 -617 24 l-588 2 -4
183 c-3 174 -4 185 -30 240 -37 78 -120 158 -195 189 l-58 23 -550 2 c-520 2
-553 1 -610 -17z m1109 -316 c13 -13 16 -42 16 -160 l0 -144 -530 0 -530 0 0
144 c0 118 3 147 16 160 14 14 74 16 514 16 440 0 500 -2 514 -16z"/>
<path d="M840 3928 c-59 -30 -90 -77 -90 -137 0 -94 301 -3158 315 -3207 32
-111 129 -208 244 -244 61 -19 94 -20 1251 -20 1157 0 1190 1 1251 20 115 36
212 133 244 244 14 49 315 3113 315 3207 0 91 -92 169 -182 154 -62 -11 -124
-74 -132 -135 -4 -25 -72 -722 -151 -1550 -80 -828 -147 -1524 -150 -1547 -11
-80 98 -73 -1195 -73 -1293 0 -1184 -7 -1195 73 -3 23 -70 719 -150 1547 -79
828 -147 1524 -150 1548 -11 74 -90 142 -165 142 -9 0 -36 -10 -60 -22z"/>
<path d="M1898 3500 c-20 -11 -47 -36 -60 -57 -20 -32 -23 -49 -21 -115 4
-136 103 -1792 109 -1821 7 -34 47 -83 85 -102 36 -19 102 -19 138 0 40 20 79
70 86 108 3 18 -19 449 -49 959 -42 712 -58 933 -69 955 -44 84 -138 115 -219
73z"/>
<path d="M3090 3509 c-33 -13 -68 -47 -87 -82 -11 -22 -27 -243 -69 -955 -30
-510 -52 -941 -49 -959 7 -38 46 -88 86 -108 36 -19 102 -19 138 0 38 19 78
68 85 102 6 29 105 1685 109 1821 2 66 -1 83 -22 115 -39 64 -124 93 -191 66z"/>
</g>
</svg>
